<svg id="logo" width="541" height="165" viewBox="0 0 541 165" fill="none" xmlns="http://www.w3.org/2000/svg">
<path fill-rule="evenodd" clip-rule="evenodd" d="M92.8899 9.89608C86.7769 3.29869 76.9296 0 63.3478 0C47.7244 0 34.829 3.85562 24.6616 11.5669C14.583 19.2781 7.50086 30.6736 3.41508 45.7533C-0.670691 60.8331 0.236397 72.2285 6.13634 79.9398C12.1251 87.651 22.9311 91.5066 38.5546 91.5066C52.5802 91.5066 64.2806 88.2936 73.6559 81.8676C82.0239 76.1858 87.9719 68.2936 91.5 58.1909C90.837 67.215 92.7558 74.4646 97.2566 79.9398C103.778 87.651 114.939 91.5066 130.74 91.5066C146.541 91.5066 159.803 87.6082 170.526 79.8113C181.25 72.0144 188.631 60.6617 192.67 45.7533C196.709 30.8449 195.48 19.4923 188.982 11.6954C182.484 3.89846 171.334 0 155.533 0C139.732 0 126.47 3.89846 115.747 11.6954C108.253 17.141 102.393 24.4026 98.1652 33.4803C100.017 23.4546 98.2585 15.5932 92.8899 9.89608ZM96.2857 37.9136H69.0539C70.4467 32.7727 70.1291 28.7029 68.101 25.7041C66.1617 22.7053 62.6177 21.2059 57.469 21.2059C51.5215 21.2059 46.6399 23.0052 42.8242 26.6038C39.0974 30.2023 36.3634 35.2146 34.6223 41.6407L32.3937 49.866C30.6758 56.2063 30.6937 61.2186 32.4473 64.9029C34.3129 68.5014 38.1307 70.3007 43.9007 70.3007C49.582 70.3007 54.2704 68.887 57.9658 66.0596C61.6613 63.2321 64.2055 59.248 65.5984 54.1071H91.9582C92.3522 51.4591 92.9449 48.6745 93.7364 45.7533C94.4773 43.019 95.327 40.4057 96.2857 37.9136ZM133.91 26.7323C138.192 23.048 143.485 21.2059 149.788 21.2059C156.09 21.2059 160.385 23.048 162.671 26.7323C165.046 30.4165 165.386 35.386 163.692 41.6407L161.463 49.866C159.768 56.1206 156.735 61.0901 152.364 64.7744C148.081 68.4586 142.788 70.3007 136.486 70.3007C130.183 70.3007 125.889 68.4586 123.602 64.7744C121.316 61.0901 121.02 56.1206 122.715 49.866L124.944 41.6407C126.638 35.386 129.627 30.4165 133.91 26.7323Z" fill="white"/>
<path d="M247.655 147.765C246.164 148.524 244.369 148.904 242.269 148.904C239.044 148.904 236.564 148.1 234.829 146.493C233.095 144.886 232.227 142.788 232.227 140.199C232.227 138.547 232.608 137.062 233.369 135.746C234.129 134.429 235.255 133.402 236.746 132.665C238.268 131.906 240.109 131.527 242.269 131.527C244.339 131.527 246.119 131.906 247.61 132.665C249.131 133.402 250.288 134.417 251.079 135.712C251.87 137.007 252.266 138.469 252.266 140.098C252.266 141.794 251.87 143.312 251.079 144.652C250.318 145.968 249.177 147.006 247.655 147.765Z" fill="white"/>
<path d="M287.718 148.904C289.818 148.904 291.613 148.524 293.104 147.765C294.626 147.006 295.767 145.968 296.527 144.652C297.319 143.312 297.714 141.794 297.714 140.098C297.714 138.469 297.319 137.007 296.527 135.712C295.736 134.417 294.58 133.402 293.058 132.665C291.567 131.906 289.787 131.527 287.718 131.527C285.557 131.527 283.716 131.906 282.195 132.665C280.704 133.402 279.578 134.429 278.817 135.746C278.056 137.062 277.676 138.547 277.676 140.199C277.676 142.788 278.543 144.886 280.278 146.493C282.012 148.1 284.492 148.904 287.718 148.904Z" fill="white"/>
<path fill-rule="evenodd" clip-rule="evenodd" d="M261.917 89.9644L270.552 58.0913C271.62 54.15 272.845 50.123 274.225 46.0104C275.718 41.812 277.025 38.2991 278.146 35.4717C279.267 32.6442 279.976 30.8449 280.274 30.0738H279.741L230.133 116.605C241.505 116.209 253.343 116 265.5 116C353.037 116 424 126.842 424 140.215C424 153.589 353.037 164.431 265.5 164.431C177.963 164.431 107 153.589 107 140.215C107 128.969 157.185 119.513 225.209 116.789L222.717 30.2023H222.184C222.064 30.9734 221.798 32.7727 221.387 35.6002C221.088 38.342 220.547 41.812 219.765 46.0104C219.006 50.123 218.092 54.15 217.024 58.0913L208.389 89.9644H181.358L205.316 1.54225H246.86L246.884 52.5649H247.416L274.955 1.54225H315.035L291.077 89.9644H261.917ZM200.958 153.424C196.241 153.424 192.072 152.799 188.451 151.549V146.694C192.255 148.167 196.424 148.904 200.958 148.904C202.905 148.904 204.336 148.636 205.249 148.1C206.192 147.564 206.664 146.861 206.664 145.991C206.664 145.143 206.238 144.506 205.386 144.082C204.564 143.658 203.179 143.245 201.232 142.844L198.128 142.207C196.333 141.828 194.766 141.393 193.427 140.902C192.118 140.388 191.007 139.641 190.095 138.658C189.182 137.676 188.725 136.404 188.725 134.842C188.725 132.275 189.775 130.333 191.875 129.016C194.005 127.677 196.987 127.007 200.821 127.007C203.103 127.007 205.112 127.163 206.846 127.476C208.611 127.766 210.391 128.223 212.187 128.848V133.536C208.809 132.197 205.02 131.527 200.821 131.527C199.056 131.527 197.793 131.772 197.033 132.263C196.302 132.755 195.937 133.458 195.937 134.373C195.967 135.243 196.333 135.879 197.033 136.281C197.763 136.661 199.102 137.051 201.049 137.453L204.199 138.089C206.116 138.469 207.759 138.926 209.128 139.462C210.498 139.998 211.624 140.779 212.506 141.806C213.419 142.81 213.875 144.127 213.875 145.756C213.845 148.145 212.689 150.02 210.406 151.381C208.124 152.743 204.975 153.424 200.958 153.424ZM242.269 153.424C238.496 153.424 235.301 152.854 232.684 151.716C230.067 150.555 228.089 148.982 226.75 146.995C225.442 144.986 224.787 142.721 224.787 140.199C224.787 137.721 225.442 135.489 226.75 133.502C228.089 131.516 230.067 129.942 232.684 128.781C235.331 127.598 238.526 127.007 242.269 127.007C245.982 127.007 249.146 127.598 251.763 128.781C254.411 129.942 256.389 131.527 257.697 133.536C259.036 135.522 259.706 137.743 259.706 140.199C259.706 142.721 259.036 144.986 257.697 146.995C256.389 148.982 254.426 150.555 251.809 151.716C249.192 152.854 246.012 153.424 242.269 153.424ZM278.133 151.716C280.75 152.854 283.945 153.424 287.718 153.424C291.461 153.424 294.641 152.854 297.258 151.716C299.875 150.555 301.837 148.982 303.146 146.995C304.485 144.986 305.154 142.721 305.154 140.199C305.154 137.743 304.485 135.522 303.146 133.536C301.837 131.527 299.859 129.942 297.212 128.781C294.595 127.598 291.43 127.007 287.718 127.007C283.975 127.007 280.78 127.598 278.133 128.781C275.516 129.942 273.538 131.516 272.199 133.502C270.89 135.489 270.236 137.721 270.236 140.199C270.236 142.721 270.89 144.986 272.199 146.995C273.538 148.982 275.516 150.555 278.133 151.716ZM346.951 127.476V152.854H338.644L325.087 136.114V152.854H317.83V127.476H326.092L339.694 144.216V127.476H346.951Z" fill="white"/>
<path d="M350.366 1.54225H320.938L296.981 89.9644H326.408L350.366 1.54225Z" fill="white"/>
<path d="M399.599 89.9644L372.748 47.0385L361.118 89.9644H334.087L358.045 1.54225H383.744L410.421 45.1107L422.225 1.54225H449.256L425.298 89.9644H399.599Z" fill="white"/>
<path d="M524.794 3.85562C518.478 1.28521 510.926 0 502.137 0C486.159 0 472.764 3.89846 461.952 11.6954C451.252 19.4066 443.87 30.7593 439.808 45.7533C435.699 60.9187 436.417 72.3571 441.962 80.0683C447.53 87.6939 457.904 91.5066 473.083 91.5066C486.576 91.5066 498.423 88.0794 508.625 81.225L509.186 89.9644H524.366L537.738 40.6125H488.87L483.995 58.6054H504.767C503.838 62.0326 501.386 64.86 497.409 67.0877C493.455 69.2297 489.082 70.3007 484.288 70.3007C477.364 70.3007 472.603 68.5443 470.004 65.0314C467.428 61.4328 467.022 56.3777 468.786 49.866L471.015 41.6407C472.779 35.1289 475.913 30.1166 480.415 26.6038C484.941 23.0052 490.666 21.2059 497.59 21.2059C502.384 21.2059 506.154 22.3626 508.9 24.6759C511.67 26.9036 512.555 29.8596 511.557 33.5439H539.653C541.603 26.3467 541.165 20.2634 538.339 15.2939C535.626 10.2388 531.11 6.42603 524.794 3.85562Z" fill="white"/>
</svg>
